<?xml version="1.0" standalone="no"?>
<!DOCTYPE svg PUBLIC "-//W3C//DTD SVG 20010904//EN"
 "http://www.w3.org/TR/2001/REC-SVG-20010904/DTD/svg10.dtd">
<svg version="1.0" xmlns="http://www.w3.org/2000/svg"
 width="500.000000pt" height="500.000000pt" viewBox="0 0 500.000000 500.000000"
 preserveAspectRatio="xMidYMid meet">
<metadata>
Created by potrace 1.11, written by Peter Selinger 2001-2013
</metadata>
<g transform="translate(0.000000,500.000000) scale(0.100000,-0.100000)"
fill="#000000" stroke="none">
<path d="M2349 3915 l-285 -285 -82 0 c-45 0 -82 3 -82 7 0 4 122 129 271 279
220 221 266 271 243 267 -16 -2 -65 -11 -109 -20 l-80 -15 -265 -263 -265
-263 -90 -6 -89 -5 224 225 c245 244 246 249 49 135 -137 -79 -212 -135 -331
-250 -138 -132 -250 -285 -338 -461 l-33 -65 175 168 c97 92 177 167 179 167
2 0 3 -39 1 -86 l-4 -87 -227 -231 -228 -231 -12 -70 c-7 -38 -15 -83 -17
-100 -5 -27 4 -21 83 60 55 56 100 113 119 150 17 33 37 60 45 60 8 0 15 6 15
13 1 6 2 19 3 28 1 10 7 13 20 9 11 -3 23 0 27 6 5 8 3 9 -6 4 -9 -5 -11 -4
-6 4 5 8 12 9 20 2 8 -7 20 -3 38 12 15 12 37 31 50 41 12 10 53 47 89 82 l66
63 74 -6 c41 -3 76 -8 78 -10 3 -2 -22 -30 -54 -63 -32 -33 -57 -61 -54 -63 3
-3 163 44 249 74 3 1 12 1 21 0 8 -1 31 9 50 22 28 19 37 34 51 87 10 35 24
70 32 79 14 13 18 13 36 -4 11 -10 20 -26 20 -35 0 -10 8 -28 19 -41 l18 -23
151 43 c140 40 154 47 186 82 l35 39 41 -16 c60 -24 75 -7 76 87 l0 70 272
272 c150 150 272 275 272 278 0 6 -49 20 -110 33 -23 5 -58 -27 -300 -269
l-275 -275 -77 0 c-43 0 -78 3 -78 8 0 4 124 131 275 282 307 307 295 286 165
289 l-55 1 -286 -285z"/>
<path d="M3015 3869 c-238 -238 -261 -259 -308 -268 -26 -6 -33 -13 -40 -43
-5 -20 -25 -55 -45 -79 -34 -40 -35 -42 -12 -36 14 3 58 9 98 13 67 6 75 5 97
-16 l24 -22 23 24 c76 80 128 149 116 152 -7 3 -20 6 -28 9 -10 3 56 76 199
220 118 119 213 218 210 220 -2 2 -24 12 -49 21 -25 10 -49 20 -55 22 -5 2
-109 -95 -230 -217z"/>
<path d="M3317 3822 c-139 -139 -165 -172 -134 -172 16 0 48 -34 66 -72 20
-40 8 -202 -23 -310 l-25 -87 23 14 c28 18 39 9 60 -51 l13 -39 -124 -128
c-68 -70 -121 -132 -118 -137 3 -6 21 -10 40 -10 19 0 46 -5 60 -12 24 -11 30
-8 85 47 l60 59 0 -31 c0 -17 -7 -50 -15 -73 -20 -58 -19 -92 6 -134 34 -58
34 -124 0 -291 -16 -82 -37 -169 -45 -192 -8 -24 -13 -43 -10 -43 2 0 24 18
49 41 50 46 50 47 58 -59 l4 -54 -138 -139 c-104 -105 -144 -139 -163 -139
-17 0 -40 -16 -72 -50 -40 -43 -150 -110 -180 -110 -31 0 -90 26 -120 52 l-36
32 -226 -230 c-125 -126 -293 -297 -375 -380 l-148 -150 56 -23 55 -23 323
318 322 318 6 -55 c3 -30 9 -65 13 -78 7 -21 -21 -52 -255 -287 -145 -145
-261 -265 -258 -268 2 -2 31 -11 64 -20 l60 -15 260 259 261 260 82 0 c45 0
82 -3 82 -6 0 -4 -117 -127 -260 -274 l-260 -267 77 -7 76 -7 276 275 276 274
66 7 c126 13 133 26 -158 -273 l-266 -273 54 7 c137 17 69 -40 793 677 l665
657 10 53 c5 28 13 77 16 107 l7 55 -276 -275 -276 -275 1 40 c0 22 4 64 8 93
l8 53 266 267 267 267 0 83 c0 45 -3 82 -8 82 -4 0 -124 -117 -267 -260 -143
-143 -262 -260 -266 -260 -3 0 -11 29 -18 65 -11 61 -10 68 8 93 11 15 132
139 269 276 l249 248 -14 57 c-8 31 -17 60 -20 64 -3 5 -129 -114 -279 -264
l-275 -272 -34 54 -34 54 284 285 c157 157 285 288 285 291 0 4 -12 33 -26 65
l-25 58 -213 -213 -212 -212 11 96 11 96 172 172 171 172 -22 36 c-49 80 -35
85 -192 -71 l-142 -142 -17 73 -18 72 122 122 122 123 -43 46 -43 47 -110
-110 -111 -110 -43 39 -43 38 110 114 109 113 -43 38 c-24 20 -47 37 -52 37
-4 0 -62 -54 -129 -121 l-120 -120 -64 10 c-34 6 -67 8 -71 5 -5 -3 -9 -1 -9
3 0 5 65 73 145 153 80 80 145 147 145 150 0 6 -95 60 -107 60 -4 0 -75 -66
-156 -148z"/>
<path d="M3105 3536 c-68 -29 -166 -163 -266 -366 -48 -97 -150 -381 -163
-455 -4 -22 -10 -48 -13 -59 -3 -13 -1 -16 7 -11 9 6 10 -13 5 -81 -6 -75 -12
-94 -35 -124 -33 -42 -37 -55 -46 -145 l-6 -69 36 27 36 28 1 -48 c1 -26 3
-62 5 -80 5 -43 -38 -92 -276 -321 l-190 -184 0 89 0 89 46 44 c25 25 55 57
65 73 20 27 20 27 1 55 -11 15 -23 37 -27 50 -7 23 -7 23 -51 -13 l-44 -36 0
38 c0 21 -3 54 -6 74 -5 31 -1 41 26 72 31 35 31 39 28 115 l-3 80 -25 -20
-25 -20 -3 82 c-3 76 -1 83 26 118 25 32 30 49 35 120 4 45 3 82 0 82 -4 0
-20 -12 -35 -27 l-28 -27 0 88 0 87 51 54 c45 47 51 59 56 108 3 30 3 68 -1
83 l-7 27 -42 -41 c-24 -23 -46 -42 -50 -42 -4 0 -7 24 -7 53 0 75 -8 83 -63
67 -81 -22 -89 -38 -104 -216 -16 -195 -29 -586 -32 -1023 -1 -197 -6 -342
-12 -352 -5 -11 -18 -19 -28 -19 -46 0 -46 2 -47 554 -1 287 2 611 6 721 4
110 6 210 3 223 -4 17 -12 22 -38 22 -28 0 -35 -5 -44 -32 -7 -20 -158 -179
-431 -453 l-421 -422 11 -49 c6 -27 13 -55 15 -63 3 -8 154 134 400 378 218
215 400 391 405 391 5 0 8 -10 6 -22 -3 -13 -5 -52 -5 -88 l-1 -64 -376 -377
-377 -377 23 -56 c12 -31 25 -56 29 -56 3 0 159 153 346 340 187 187 343 340
347 340 5 0 8 -37 8 -82 l0 -82 -321 -322 -321 -321 33 -52 32 -53 166 164
c91 89 221 217 289 283 l122 120 0 -85 0 -86 -245 -251 c-135 -138 -245 -254
-245 -257 0 -3 16 -24 37 -47 l36 -40 202 200 c110 111 204 201 208 201 4 0 7
-35 7 -79 l0 -78 -164 -170 -165 -170 39 -38 39 -38 128 122 c70 66 131 121
135 121 5 0 8 -9 8 -19 0 -15 10 -20 50 -26 28 -4 50 -10 48 -15 -2 -4 -56
-63 -120 -131 -64 -68 -116 -128 -115 -134 1 -5 19 -22 41 -37 l40 -26 173
166 c102 98 187 172 206 178 22 8 34 19 37 38 3 17 93 114 260 283 175 176
266 276 288 315 65 113 273 386 389 510 71 76 79 104 37 137 -52 41 -180 14
-300 -64 -77 -50 -126 -59 -144 -26 -27 51 -12 78 150 276 58 72 121 152 139
178 30 44 111 208 111 224 0 4 -12 -4 -27 -17 -16 -13 -11 -7 9 13 30 30 40
50 54 113 32 146 20 196 -41 170z"/>
<path d="M2722 3347 c-44 -17 -52 -31 -52 -105 0 -62 -1 -65 -49 -120 -41 -47
-48 -62 -44 -85 3 -15 10 -30 17 -34 6 -3 8 -3 5 0 -3 4 10 24 30 45 38 40
151 259 151 293 0 22 -11 23 -58 6z"/>
<path d="M2599 3296 c-3 -3 -22 -7 -44 -9 -32 -3 -40 -9 -46 -29 -4 -14 -3
-32 2 -39 6 -11 20 -3 56 34 26 26 45 47 42 47 -3 0 -8 -2 -10 -4z"/>
<path d="M1235 2780 c-11 -4 -82 -67 -157 -140 l-138 -132 0 -79 c0 -43 3 -79
8 -79 9 0 402 393 402 403 0 12 -22 8 -39 -7 -14 -13 -19 -12 -41 12 -14 14
-19 22 -11 17 10 -5 12 -4 7 3 -4 7 -8 12 -9 11 -1 0 -11 -4 -22 -9z"/>
<path d="M1310 2776 c0 -8 -6 -16 -12 -19 -7 -2 -10 -7 -7 -11 3 -3 14 2 23
13 11 12 14 21 7 26 -6 3 -11 0 -11 -9z"/>
<path d="M2939 2121 c-147 -197 -204 -318 -166 -350 52 -43 210 133 271 303
27 73 27 87 1 66 -13 -11 -15 -8 -15 21 0 69 -14 63 -91 -40z"/>
<path d="M3730 1405 c-534 -535 -519 -516 -315 -413 306 154 550 391 720 702
30 53 98 206 92 206 -1 0 -225 -223 -497 -495z"/>
</g>
</svg>
